# Blender v2.61 (sub 0) OBJ File: 'apple.blend'
# www.blender.org
o Sphere
v 0.125753 0.303594 0.000000
v 0.232361 0.232361 0.000000
v 0.303594 0.125753 0.000000
v 0.328608 -0.000000 0.000000
v 0.303594 -0.125753 0.000000
v 0.232361 -0.232361 0.000000
v 0.125753 -0.303594 0.000000
v 0.088921 -0.303594 -0.088921
v 0.164304 -0.232361 -0.164304
v 0.214673 -0.125753 -0.214673
v 0.232361 0.000000 -0.232361
v 0.214673 0.125753 -0.214673
v 0.164304 0.232361 -0.164304
v 0.088921 0.303594 -0.088921
v -0.000000 0.303594 -0.125753
v -0.000000 0.232361 -0.232361
v -0.000000 0.125753 -0.303594
v -0.000000 0.000000 -0.328608
v -0.000000 -0.125753 -0.303594
v -0.000000 -0.232361 -0.232361
v -0.000000 -0.303594 -0.125753
v -0.088921 -0.303594 -0.088921
v -0.164304 -0.232361 -0.164304
v -0.214673 -0.125753 -0.214673
v -0.232361 0.000000 -0.232361
v -0.214673 0.125753 -0.214673
v -0.164304 0.232361 -0.164304
v -0.088921 0.303594 -0.088921
v -0.125753 0.303594 0.000000
v -0.232361 0.232361 0.000000
v -0.303594 0.125753 0.000000
v -0.328608 0.000000 0.000000
v -0.303594 -0.125753 0.000000
v -0.232361 -0.232361 0.000000
v -0.125753 -0.303594 0.000000
v -0.000000 -0.328608 0.000000
v -0.088921 -0.303594 0.088921
v -0.164304 -0.232361 0.164304
v -0.214673 -0.125753 0.214673
v -0.232361 0.000000 0.232361
v -0.214673 0.125753 0.214673
v -0.164304 0.232361 0.164304
v -0.088921 0.303594 0.088921
v 0.000000 0.303594 0.125753
v 0.000000 0.232361 0.232361
v 0.000000 0.125753 0.303594
v 0.000000 0.000000 0.328608
v 0.000000 -0.125753 0.303594
v 0.000000 -0.232361 0.232361
v 0.000000 -0.303594 0.125753
v 0.088921 -0.303594 0.088921
v 0.164304 -0.232361 0.164304
v 0.214673 -0.125753 0.214673
v 0.232361 0.000000 0.232361
v 0.214673 0.125753 0.214673
v 0.164304 0.232361 0.164304
v 0.088921 0.303594 0.088921
v 0.063966 0.275352 0.063966
v 0.000000 0.275352 0.090462
v -0.063966 0.275352 0.063966
v -0.090462 0.275352 0.000000
v -0.063966 0.275352 -0.063966
v -0.000000 0.275352 -0.090462
v 0.063966 0.275352 -0.063966
v 0.090462 0.275352 0.000000
v 0.027264 0.324072 -0.000000
v 0.003497 0.322564 -0.019776
v -0.002175 0.306159 -0.040884
v -0.019776 0.343065 -0.019776
v -0.051015 0.328221 -0.004080
v -0.019776 0.343065 0.019776
v -0.021706 0.316535 0.027968
v 0.003497 0.322564 0.019776
v 0.097529 0.468090 -0.000000
vt 0.839808 0.103551
vt 0.642799 0.037651
vt 0.905708 0.103551
vt 0.839808 0.169451
vt 0.905708 0.169451
vt 0.839808 0.235352
vt 0.905708 0.235352
vt 0.839808 0.301252
vt 0.905708 0.301252
vt 0.839808 0.367152
vt 0.905708 0.367152
vt 0.839808 0.433052
vt 0.905708 0.433052
vt 0.363128 0.268400
vt 0.298130 0.213991
vt 0.228251 0.150765
vt 0.349160 0.141431
vt 0.154580 0.178625
vt 0.228454 0.077638
vt 0.971608 0.367152
vt 0.971608 0.433052
vt 0.971608 0.301252
vt 0.971608 0.235352
vt 0.971608 0.169451
vt 0.971608 0.103551
vt 0.444407 0.103551
vt 0.510308 0.103551
vt 0.444407 0.169451
vt 0.510308 0.169451
vt 0.444407 0.235352
vt 0.510308 0.235352
vt 0.444407 0.301252
vt 0.510308 0.301252
vt 0.444407 0.367152
vt 0.510308 0.367152
vt 0.444407 0.433052
vt 0.510308 0.433052
vt 0.097211 0.228562
vt 0.086225 0.095102
vt 0.069442 0.245487
vt 0.008478 0.181731
vt 0.576208 0.367152
vt 0.576208 0.433052
vt 0.576208 0.301252
vt 0.576208 0.235352
vt 0.576208 0.169451
vt 0.576208 0.103551
vt 0.642108 0.103551
vt 0.642108 0.169451
vt 0.642108 0.235352
vt 0.642108 0.301252
vt 0.642108 0.367152
vt 0.642108 0.433052
vt 0.129297 0.281277
vt 0.024433 0.286950
vt 0.205659 0.257971
vt 0.124399 0.358017
vt 0.708008 0.367152
vt 0.708008 0.433052
vt 0.708008 0.301252
vt 0.708008 0.235352
vt 0.708008 0.169451
vt 0.708008 0.103551
vt 0.773908 0.103551
vt 0.773908 0.169451
vt 0.773908 0.235352
vt 0.773908 0.301252
vt 0.773908 0.367152
vt 0.773908 0.433052
vt 0.264092 0.205700
vt 0.266793 0.352001
vt 0.844384 0.909925
vt 0.904771 0.857520
vt 0.975333 0.886551
vt 0.868842 0.977694
vt 0.755125 0.913697
vt 0.731467 0.977694
vt 0.692461 0.869148
vt 0.641013 0.895371
vt 0.682459 0.803192
vt 0.639434 0.791312
vt 0.731196 0.748889
vt 0.699490 0.671147
vt 0.820351 0.737941
vt 0.835170 0.679163
vt 0.896016 0.777930
vt 0.984128 0.733742
vt 0.177695 0.396245
vt 0.253507 0.395204
vt 0.229474 0.476139
vt 0.206249 0.464684
vt 0.306432 0.445730
vt 0.254009 0.469545
vt 0.306432 0.520896
vt 0.233347 0.498635
vt 0.251979 0.577854
vt 0.233654 0.523080
vt 0.175838 0.571653
vt 0.212808 0.506181
vt 0.125976 0.519656
vt 0.195977 0.513321
vt 0.126447 0.449871
vt 0.198520 0.490035
vt 0.345052 0.950181
vt 0.228412 0.878756
vt 0.308253 0.772258
vt 0.545805 0.969638
vt 0.488343 0.775946
vt 0.545805 0.554203
vt 0.335454 0.598544
vt 0.095717 0.629208
vt 0.144646 0.785442
vn 0.422559 -0.906308 0.000000
vn 0.000000 -1.000000 0.000000
vn 0.298807 -0.906308 -0.298807
vn 0.729606 -0.683828 0.000000
vn 0.515915 -0.683828 -0.515915
vn 0.930296 -0.366771 0.000000
vn 0.657796 -0.366771 -0.657796
vn 1.000000 0.000000 0.000000
vn 0.707083 0.000000 -0.707083
vn 0.930296 0.366771 0.000000
vn 0.657796 0.366771 -0.657796
vn 0.729606 0.683828 0.000000
vn 0.515915 0.683828 -0.515915
vn 0.103366 0.994629 0.000000
vn 0.073092 0.994629 -0.073092
vn 0.000000 0.683828 -0.729606
vn 0.000000 0.994629 -0.103366
vn 0.000000 0.366771 -0.930296
vn 0.000000 0.000000 -1.000000
vn 0.000000 -0.366771 -0.930296
vn 0.000000 -0.683828 -0.729606
vn 0.000000 -0.906308 -0.422559
vn -0.298807 -0.906308 -0.298807
vn -0.515915 -0.683828 -0.515915
vn -0.657796 -0.366771 -0.657796
vn -0.707083 0.000000 -0.707083
vn -0.657796 0.366771 -0.657796
vn -0.515915 0.683828 -0.515915
vn -0.073092 0.994629 -0.073092
vn -0.729606 0.683828 0.000000
vn -0.103366 0.994629 0.000000
vn -0.930296 0.366771 0.000000
vn -1.000000 0.000000 0.000000
vn -0.930296 -0.366771 0.000000
vn -0.729606 -0.683828 0.000000
vn -0.422559 -0.906308 0.000000
vn -0.298807 -0.906308 0.298807
vn -0.515915 -0.683828 0.515915
vn -0.657796 -0.366771 0.657796
vn -0.707083 0.000000 0.707083
vn -0.657796 0.366771 0.657796
vn -0.515915 0.683828 0.515915
vn -0.073092 0.994629 0.073092
vn 0.000000 0.683828 0.729606
vn 0.000000 0.994629 0.103366
vn 0.000000 0.366771 0.930296
vn 0.000000 0.000000 1.000000
vn 0.000000 -0.366771 0.930296
vn 0.000000 -0.683828 0.729606
vn 0.000000 -0.906308 0.422559
vn 0.298807 -0.906308 0.298807
vn 0.515915 -0.683828 0.515915
vn 0.657796 -0.366771 0.657796
vn 0.707083 0.000000 0.707083
vn 0.657796 0.366771 0.657796
vn 0.515915 0.683828 0.515915
vn 0.073092 0.994629 0.073092
vn -0.199042 0.979980 0.000000
vn -0.148167 0.982635 -0.111423
vn 0.032289 0.987518 -0.154088
vn 0.124180 0.991058 -0.048433
vn 0.090152 0.995911 -0.000885
vn 0.126316 0.991211 0.038606
vn 0.026978 0.988250 0.150334
vn -0.142582 0.983398 0.112003
vn 0.938383 0.083377 -0.335307
vn 0.895321 0.445357 0.000000
vn 0.105502 0.706442 -0.699820
vn -0.448225 0.584643 -0.676168
vn -0.736106 0.676015 -0.033631
vn -0.463607 0.568316 0.679739
vn 0.035127 0.641346 0.766411
vn 0.435804 0.395764 0.808344
vn 0.601794 0.798486 0.013947
s 1
f 7/1/1 36/2/2 8/3/3
f 6/4/4 7/1/1 8/3/3
f 6/4/4 8/3/3 9/5/5
f 5/6/6 6/4/4 9/5/5
f 5/6/6 9/5/5 10/7/7
f 4/8/8 5/6/6 10/7/7
f 4/8/8 10/7/7 11/9/9
f 3/10/10 4/8/8 11/9/9
f 3/10/10 11/9/9 12/11/11
f 2/12/12 3/10/10 12/11/11
f 2/12/12 12/11/11 13/13/13
f 1/14/14 2/15/12 13/16/13
f 1/14/14 13/16/13 14/17/15
f 14/17/15 13/16/13 16/18/16
f 14/17/15 16/18/16 15/19/17
f 13/13/13 12/11/11 17/20/18
f 13/13/13 17/20/18 16/21/16
f 12/11/11 11/9/9 18/22/19
f 12/11/11 18/22/19 17/20/18
f 11/9/9 10/7/7 19/23/20
f 11/9/9 19/23/20 18/22/19
f 10/7/7 9/5/5 20/24/21
f 10/7/7 20/24/21 19/23/20
f 9/5/5 8/3/3 21/25/22
f 9/5/5 21/25/22 20/24/21
f 8/3/3 36/2/2 21/25/22
f 21/26/22 36/2/2 22/27/23
f 20/28/21 21/26/22 22/27/23
f 20/28/21 22/27/23 23/29/24
f 19/30/20 20/28/21 23/29/24
f 19/30/20 23/29/24 24/31/25
f 18/32/19 19/30/20 24/31/25
f 18/32/19 24/31/25 25/33/26
f 17/34/18 18/32/19 25/33/26
f 17/34/18 25/33/26 26/35/27
f 16/36/16 17/34/18 26/35/27
f 16/36/16 26/35/27 27/37/28
f 15/19/17 16/18/16 27/38/28
f 15/19/17 27/38/28 28/39/29
f 28/39/29 27/38/28 30/40/30
f 28/39/29 30/40/30 29/41/31
f 27/37/28 26/35/27 31/42/32
f 27/37/28 31/42/32 30/43/30
f 26/35/27 25/33/26 32/44/33
f 26/35/27 32/44/33 31/42/32
f 25/33/26 24/31/25 33/45/34
f 25/33/26 33/45/34 32/44/33
f 24/31/25 23/29/24 34/46/35
f 24/31/25 34/46/35 33/45/34
f 23/29/24 22/27/23 35/47/36
f 23/29/24 35/47/36 34/46/35
f 22/27/23 36/2/2 35/47/36
f 35/47/36 36/2/2 37/48/37
f 34/46/35 35/47/36 37/48/37
f 34/46/35 37/48/37 38/49/38
f 33/45/34 34/46/35 38/49/38
f 33/45/34 38/49/38 39/50/39
f 32/44/33 33/45/34 39/50/39
f 32/44/33 39/50/39 40/51/40
f 31/42/32 32/44/33 40/51/40
f 31/42/32 40/51/40 41/52/41
f 30/43/30 31/42/32 41/52/41
f 30/43/30 41/52/41 42/53/42
f 29/41/31 30/40/30 42/54/42
f 29/41/31 42/54/42 43/55/43
f 43/55/43 42/54/42 45/56/44
f 43/55/43 45/56/44 44/57/45
f 42/53/42 41/52/41 46/58/46
f 42/53/42 46/58/46 45/59/44
f 41/52/41 40/51/40 47/60/47
f 41/52/41 47/60/47 46/58/46
f 40/51/40 39/50/39 48/61/48
f 40/51/40 48/61/48 47/60/47
f 39/50/39 38/49/38 49/62/49
f 39/50/39 49/62/49 48/61/48
f 38/49/38 37/48/37 50/63/50
f 38/49/38 50/63/50 49/62/49
f 37/48/37 36/2/2 50/63/50
f 50/63/50 36/2/2 51/64/51
f 49/62/49 50/63/50 51/64/51
f 49/62/49 51/64/51 52/65/52
f 48/61/48 49/62/49 52/65/52
f 48/61/48 52/65/52 53/66/53
f 47/60/47 48/61/48 53/66/53
f 47/60/47 53/66/53 54/67/54
f 46/58/46 47/60/47 54/67/54
f 46/58/46 54/67/54 55/68/55
f 45/59/44 46/58/46 55/68/55
f 45/59/44 55/68/55 56/69/56
f 44/57/45 45/56/44 56/70/56
f 44/57/45 56/70/56 57/71/57
f 2/15/12 1/14/14 57/71/57
f 2/15/12 57/71/57 56/70/56
f 56/69/56 55/68/55 3/10/10
f 56/69/56 3/10/10 2/12/12
f 55/68/55 54/67/54 4/8/8
f 55/68/55 4/8/8 3/10/10
f 54/67/54 53/66/53 5/6/6
f 54/67/54 5/6/6 4/8/8
f 53/66/53 52/65/52 6/4/4
f 53/66/53 6/4/4 5/6/6
f 52/65/52 51/64/51 7/1/1
f 52/65/52 7/1/1 6/4/4
f 51/64/51 36/2/2 7/1/1
f 57/72/57 1/73/14 65/74/58
f 57/72/57 65/74/58 58/75/59
f 44/76/45 57/72/57 58/75/59
f 44/76/45 58/75/59 59/77/60
f 43/78/43 44/76/45 59/77/60
f 43/78/43 59/77/60 60/79/61
f 29/80/31 43/78/43 60/79/61
f 29/80/31 60/79/61 61/81/62
f 28/82/29 29/80/31 61/81/62
f 28/82/29 61/81/62 62/83/63
f 15/84/17 28/82/29 62/83/63
f 15/84/17 62/83/63 63/85/64
f 14/86/15 15/84/17 63/85/64
f 14/86/15 63/85/64 64/87/65
f 1/73/14 14/86/15 64/87/65
f 1/73/14 64/87/65 65/74/58
f 65/88/58 64/89/65 67/90/66
f 65/88/58 67/90/66 66/91/67
f 64/89/65 63/92/64 68/93/68
f 64/89/65 68/93/68 67/90/66
f 63/92/64 62/94/63 69/95/69
f 63/92/64 69/95/69 68/93/68
f 62/94/63 61/96/62 70/97/70
f 62/94/63 70/97/70 69/95/69
f 61/96/62 60/98/61 71/99/71
f 61/96/62 71/99/71 70/97/70
f 60/98/61 59/100/60 72/101/72
f 60/98/61 72/101/72 71/99/71
f 59/100/60 58/102/59 73/103/73
f 59/100/60 73/103/73 72/101/72
f 58/102/59 65/88/58 66/91/67
f 58/102/59 66/91/67 73/103/73
f 73/104/73 66/105/67 74/106/74
f 72/107/72 73/104/73 74/106/74
f 71/108/71 72/107/72 74/106/74
f 70/109/70 71/108/71 74/106/74
f 69/110/69 70/109/70 74/106/74
f 68/111/68 69/110/69 74/106/74
f 67/112/66 68/111/68 74/106/74
f 66/105/67 67/112/66 74/106/74
